<svg width="14" height="14" viewBox="0 0 14 14" fill="none" xmlns="http://www.w3.org/2000/svg">
    <path
        d="M7.904 13.416L7.168 13.384C6.72 13.384 6.336 13.3733 6.016 13.352C5.71733 13.3307 5.504 13.3307 5.376 13.352C5.376 13.352 5.36533 13.352 5.344 13.352C5.344 13.3307 5.344 13.2987 5.344 13.256C5.30133 12.7867 5.28 12.488 5.28 12.36L5.312 11.144V10.056C5.312 9.13867 5.28 8.65867 5.216 8.616H5.152C4.59733 8.59467 3.72267 8.54133 2.528 8.456C1.33333 8.34933 0.736 8.264 0.736 8.2C0.757333 7.92267 0.746667 7.42133 0.704 6.696C0.661333 5.97067 0.64 5.55467 0.64 5.448C0.661333 5.46933 0.949333 5.45867 1.504 5.416L3.36 5.32C4.704 5.23467 5.42933 5.17067 5.536 5.128C5.536 3.592 5.54667 2.568 5.568 2.056C5.58933 1.544 5.65333 0.935999 5.76 0.231998C5.86667 0.338665 6.22933 0.391998 6.848 0.391998C7.296 0.391998 7.62667 0.381332 7.84 0.359999C7.98933 0.359999 8.14933 0.359999 8.32 0.359999C8.512 0.338666 8.69333 0.338666 8.864 0.359999V1.224C8.864 3.69867 8.88533 4.98933 8.928 5.096C9.09867 5.11733 9.472 5.128 10.048 5.128H11.52C12.544 5.128 13.216 5.16 13.536 5.224C13.5147 5.52267 13.504 5.94933 13.504 6.504C13.504 7.10133 13.472 7.72 13.408 8.36C13.3013 8.424 12.4907 8.456 10.976 8.456C10.272 8.456 9.77067 8.47733 9.472 8.52C9.19467 8.54133 9.00267 8.60533 8.896 8.712C8.78933 8.81867 8.736 8.98933 8.736 9.224C8.736 9.33067 8.74667 9.48 8.768 9.672C8.78933 9.864 8.8 10.1093 8.8 10.408C8.8 11.0267 8.768 11.6133 8.704 12.168C8.66133 12.7227 8.64 13.0747 8.64 13.224V13.288C8.64 13.3733 8.39467 13.416 7.904 13.416Z"
        fill="black" />
</svg>